<?xml version="1.0" encoding="UTF-8"?>
<!DOCTYPE svg PUBLIC "-//W3C//DTD SVG 1.1//EN" "http://www.w3.org/Graphics/SVG/1.1/DTD/svg11.dtd">
<!-- Creator: CorelDRAW 2020 (64-Bit) -->
<svg xmlns="http://www.w3.org/2000/svg" xml:space="preserve" width="94px" height="94px" version="1.1" style="shape-rendering:geometricPrecision; text-rendering:geometricPrecision; image-rendering:optimizeQuality; fill-rule:evenodd; clip-rule:evenodd"
viewBox="0 0 62.08 62.08"
 xmlns:xlink="http://www.w3.org/1999/xlink"
 xmlns:xodm="http://www.corel.com/coreldraw/odm/2003">
 <defs>
  <style type="text/css">
   <![CDATA[
    .fil0 {fill:#F7F7F7}
    .fil1 {fill:#333333;fill-rule:nonzero}
   ]]>
  </style>
 </defs>
 <g id="Слой_x0020_1">
  <metadata id="CorelCorpID_0Corel-Layer"/>
  <g id="_2215667355440">
   <rect class="fil0" width="62.08" height="62.08" rx="7.76" ry="6.95"/>
   <path id="favicon.svg" class="fil1" d="M10.7 56.32l27.01 0c10.65,0 16.1,-4.95 16.1,-14.37l0 -0.15c0,-7 -3.46,-11.25 -10.14,-12.46l0 -0.66c5.59,-1.1 8.52,-4.84 8.52,-10.93l0 -0.18c0,-8.29 -5.09,-12.58 -15.06,-12.58l-26.43 0 0 51.33zm10.65 -30.32l0 -13.75 12.6 0c5.09,0 7.62,2.27 7.62,6.75l0 0.14c0,4.55 -2.53,6.86 -7.62,6.86l-12.6 0zm0 23.03l0 -16.36 12.93 0c5.6,0 8.38,2.72 8.38,8.03l0 0.15c0,5.43 -2.78,8.18 -8.38,8.18l-12.93 0z"/>
  </g>
 </g>
</svg>
